<?xml version="1.0" encoding="UTF-8" standalone="no"?>
<!DOCTYPE svg PUBLIC "-//W3C//DTD SVG 1.1//EN" "http://www.w3.org/Graphics/SVG/1.1/DTD/svg11.dtd">
<svg width="100%" height="100%" viewBox="0 0 500 500" version="1.1" xmlns="http://www.w3.org/2000/svg" xmlns:xlink="http://www.w3.org/1999/xlink" xml:space="preserve" xmlns:serif="http://www.serif.com/" style="fill-rule:evenodd;clip-rule:evenodd;stroke-linecap:round;stroke-miterlimit:1.5;">
    <rect id="Artboard1" x="0" y="0" width="500" height="500" style="fill:none;"/>
    <g id="Artboard11" serif:id="Artboard1">
        <g transform="matrix(0.655328,0,0,0.655328,183.964,137.876)">
            <path d="M-88.027,443.725C-97.546,443.725 -103.702,436.898 -103.702,428.215C-103.702,419.475 -97.602,412.705 -88.027,412.705C-79.795,412.705 -73.97,417.685 -73.13,424.909L-81.923,424.909C-82.707,422.388 -84.891,420.539 -88.027,420.539C-92.228,420.539 -94.86,423.956 -94.86,428.215C-94.86,432.529 -92.172,435.891 -87.971,435.891C-85.059,435.891 -82.763,434.21 -82.035,431.857L-73.186,431.857C-74.138,438.857 -79.907,443.725 -88.027,443.725ZM-49.997,410.122C-52.963,410.122 -55.09,408.331 -55.09,405.421C-55.09,402.511 -52.963,400.72 -49.997,400.72C-46.974,400.72 -44.904,402.511 -44.904,405.421C-44.904,408.331 -46.974,410.122 -49.997,410.122ZM-45.632,436.227L-36.615,436.227L-36.615,442.996L-64.05,442.996L-64.05,436.227L-54.306,436.227L-54.306,420.203L-62.986,420.203L-62.986,413.433L-45.632,413.433L-45.632,436.227ZM-3.46,421.379C-7.773,421.379 -10.517,424.46 -10.517,429.559L-10.517,436.227L1.412,436.227L1.412,442.996L-26.751,442.996L-26.751,436.227L-19.191,436.227L-19.191,420.203L-25.967,420.203L-25.967,413.433L-11.021,413.433L-11.021,417.909L-10.573,417.909C-9.565,415.727 -6.877,413.209 -2.9,413.209L2.196,413.209L2.196,421.379L-3.46,421.379ZM26.222,443.725C16.704,443.725 10.548,436.898 10.548,428.215C10.548,419.475 16.648,412.705 26.222,412.705C34.455,412.705 40.279,417.685 41.119,424.909L32.327,424.909C31.543,422.388 29.358,420.539 26.222,420.539C22.022,420.539 19.39,423.956 19.39,428.215C19.39,432.529 22.078,435.891 26.278,435.891C29.19,435.891 31.487,434.21 32.215,431.857L41.063,431.857C40.111,438.857 34.343,443.725 26.222,443.725ZM70.634,435.387L77.858,435.387L77.858,442.996L68.674,442.996C62.798,442.996 59.44,439.471 59.44,433.706L59.44,407.77L49.975,407.77L49.975,401L68.114,401L68.114,432.698C68.114,434.491 69.066,435.387 70.634,435.387ZM102,443.725C93.429,443.725 86.994,437.291 86.994,428.382C86.994,419.139 93.149,412.705 102.168,412.705C111.914,412.705 117.006,419.867 117.006,428.102L117.006,430.619L95.22,430.619C95.5,434.376 98.246,437.067 102.28,437.067C105.754,437.067 107.995,435.385 108.836,433.535L116.67,433.535C115.327,439.752 109.955,443.725 102,443.725ZM95.388,424.858L108.948,424.858C108.612,421.718 106.034,419.307 102.168,419.307C98.47,419.307 95.78,421.942 95.388,424.858ZM134.598,442.997L134.598,420.203L125.413,420.203L125.413,413.433L134.766,413.433L134.766,411.526C134.766,405.028 139.355,401 146.072,401L154.361,401L154.361,408.162L147.136,408.162C144.392,408.162 143.16,409.676 143.16,411.919L143.16,413.433L154.697,413.433L154.697,420.203L143.272,420.203L143.272,442.997L134.598,442.997ZM178.502,410.122C175.536,410.122 173.409,408.331 173.409,405.421C173.409,402.511 175.536,400.72 178.502,400.72C181.525,400.72 183.595,402.511 183.595,405.421C183.595,408.331 181.525,410.122 178.502,410.122ZM182.867,436.227L191.884,436.227L191.884,442.996L164.449,442.996L164.449,436.227L174.194,436.227L174.194,420.203L165.513,420.203L165.513,413.433L182.867,413.433L182.867,436.227ZM222.967,435.387L230.191,435.387L230.191,442.996L221.006,442.996C215.13,442.996 211.773,439.471 211.773,433.706L211.773,407.77L202.308,407.77L202.308,401L220.446,401L220.446,432.698C220.446,434.491 221.398,435.387 222.967,435.387ZM254.333,443.725C245.762,443.725 239.327,437.291 239.327,428.382C239.327,419.139 245.482,412.705 254.501,412.705C264.246,412.705 269.338,419.867 269.338,428.102L269.338,430.619L247.553,430.619C247.833,434.376 250.578,437.067 254.613,437.067C258.087,437.067 260.328,435.385 261.169,433.535L269.003,433.535C267.66,439.752 262.288,443.725 254.333,443.725ZM247.721,424.858L261.281,424.858C260.945,421.718 258.367,419.307 254.501,419.307C250.802,419.307 248.113,421.942 247.721,424.858ZM292.248,443.725C283.791,443.725 279.762,439.92 279.594,433.931L287.484,433.931C287.708,436.001 289.445,437.065 292.304,437.067C295.218,437.067 296.9,436.001 296.9,434.317C296.9,428.99 280.154,434.822 280.154,422.103C280.154,417.069 284.407,412.705 292.304,412.705C299.138,412.705 304.118,415.95 304.454,422.107L296.956,422.107C296.676,420.316 295.162,419.085 292.304,419.083C289.669,419.083 287.988,420.145 287.988,421.712C287.988,426.525 305.237,420.761 305.237,433.868C305.237,439.585 300.649,443.725 292.248,443.725Z" style="fill:rgb(238,238,238);"/>
        </g>
        <g transform="matrix(0.74,0,0,0.944,65,14)">
            <path d="M377.297,-0L500,96.186L500,500L0,500L0,0L377.297,-0Z" style="fill:url(#_Linear1);"/>
        </g>
        <path d="M421,113L449,99.001L449,500L51,500L51,0L349.999,0L336,28L79,28L79,472L421,472L421,113Z" style="fill:url(#_Linear2);"/>
        <g transform="matrix(1.13,0,0,1.13,-42.55,-16.95)">
            <path d="M435,102.611L335,115L347.389,15L435,102.611Z" style="fill:url(#_Linear3);"/>
        </g>
        <g transform="matrix(1.13,0,0,1.13,-42.55,-16.95)">
            <path d="M435,102.611L435,127.389L322.611,127.389L322.611,15L347.389,15L347.389,102.611L435,102.611Z" style="fill:url(#_Linear4);"/>
        </g>
        <g transform="matrix(0.615385,0,0,0.615385,96.1538,96.1538)">
            <circle cx="250" cy="250" r="65" style="fill:none;stroke:url(#_Linear5);stroke-width:45.5px;"/>
        </g>
        <g transform="matrix(0.735353,0,0,0.735353,207.842,27.19)">
            <g transform="matrix(254.08,0,0,254.08,111,381)">
                <path d="M0.174,0.149L0.249,0.149C0.352,0.149 0.43,0.099 0.43,-0.014L0.43,-0.204C0.43,-0.23 0.446,-0.248 0.473,-0.248L0.506,-0.248L0.506,-0.367L0.473,-0.367C0.446,-0.367 0.43,-0.385 0.43,-0.411L0.43,-0.601C0.43,-0.713 0.352,-0.763 0.249,-0.763L0.174,-0.763L0.174,-0.639L0.223,-0.639C0.264,-0.639 0.282,-0.62 0.282,-0.579L0.282,-0.389C0.282,-0.339 0.303,-0.317 0.332,-0.311L0.332,-0.303C0.303,-0.297 0.282,-0.275 0.282,-0.225L0.282,-0.036C0.282,0.007 0.264,0.025 0.223,0.025L0.174,0.025L0.174,0.149Z" style="fill:url(#_Linear6);fill-rule:nonzero;"/>
            </g>
        </g>
        <g transform="matrix(0.735353,0,0,0.735353,1.85945,27.19)">
            <g transform="matrix(254.08,0,0,254.08,111,381)">
                <path d="M0.432,0.149L0.507,0.149L0.507,0.025L0.458,0.025C0.416,0.025 0.399,0.007 0.399,-0.036L0.399,-0.225C0.399,-0.275 0.378,-0.297 0.348,-0.303L0.348,-0.311C0.378,-0.317 0.399,-0.339 0.399,-0.389L0.399,-0.579C0.399,-0.62 0.416,-0.639 0.458,-0.639L0.507,-0.639L0.507,-0.763L0.432,-0.763C0.328,-0.763 0.251,-0.713 0.251,-0.601L0.251,-0.411C0.251,-0.385 0.234,-0.367 0.207,-0.367L0.174,-0.367L0.174,-0.248L0.207,-0.248C0.234,-0.248 0.251,-0.23 0.251,-0.204L0.251,-0.014C0.251,0.099 0.328,0.149 0.432,0.149Z" style="fill:url(#_Linear7);fill-rule:nonzero;"/>
            </g>
        </g>
    </g>
    <defs>
        <linearGradient id="_Linear1" x1="0" y1="0" x2="1" y2="0" gradientUnits="userSpaceOnUse" gradientTransform="matrix(3.90563e-14,500,-637.838,3.06162e-14,250,-1.42109e-14)"><stop offset="0" style="stop-color:rgb(34,34,34);stop-opacity:1"/><stop offset="1" style="stop-color:rgb(17,17,17);stop-opacity:1"/></linearGradient>
        <linearGradient id="_Linear2" x1="0" y1="0" x2="1" y2="0" gradientUnits="userSpaceOnUse" gradientTransform="matrix(3.06162e-14,500,-500,3.06162e-14,250,3.52128e-09)"><stop offset="0" style="stop-color:rgb(51,51,51);stop-opacity:1"/><stop offset="1" style="stop-color:rgb(34,34,34);stop-opacity:1"/></linearGradient>
        <linearGradient id="_Linear3" x1="0" y1="0" x2="1" y2="0" gradientUnits="userSpaceOnUse" gradientTransform="matrix(44.2478,-44.2478,44.2478,44.2478,347.389,102.611)"><stop offset="0" style="stop-color:rgb(51,51,51);stop-opacity:1"/><stop offset="1" style="stop-color:rgb(34,34,34);stop-opacity:1"/></linearGradient>
        <linearGradient id="_Linear4" x1="0" y1="0" x2="1" y2="0" gradientUnits="userSpaceOnUse" gradientTransform="matrix(68.1416,-68.1416,68.1416,68.1416,322.611,127.389)"><stop offset="0" style="stop-color:rgb(85,85,85);stop-opacity:1"/><stop offset="1" style="stop-color:rgb(51,51,51);stop-opacity:1"/></linearGradient>
        <linearGradient id="_Linear5" x1="0" y1="0" x2="1" y2="0" gradientUnits="userSpaceOnUse" gradientTransform="matrix(7.9602e-15,130,-130,7.9602e-15,250,185)"><stop offset="0" style="stop-color:rgb(0,204,102);stop-opacity:1"/><stop offset="1" style="stop-color:rgb(2,168,83);stop-opacity:1"/></linearGradient>
        <linearGradient id="_Linear6" x1="0" y1="0" x2="1" y2="0" gradientUnits="userSpaceOnUse" gradientTransform="matrix(5.57138e-17,0.909875,-0.909875,5.57138e-17,0.498938,-0.762937)"><stop offset="0" style="stop-color:rgb(238,238,238);stop-opacity:1"/><stop offset="1" style="stop-color:rgb(221,221,221);stop-opacity:1"/></linearGradient>
        <linearGradient id="_Linear7" x1="0" y1="0" x2="1" y2="0" gradientUnits="userSpaceOnUse" gradientTransform="matrix(5.57138e-17,0.909875,-0.909875,5.57138e-17,0.498938,-0.762937)"><stop offset="0" style="stop-color:rgb(238,238,238);stop-opacity:1"/><stop offset="1" style="stop-color:rgb(221,221,221);stop-opacity:1"/></linearGradient>
    </defs>
</svg>
